<?xml version="1.0" encoding="utf-8"?>
<!-- Generator: Adobe Illustrator 15.0.0, SVG Export Plug-In . SVG Version: 6.00 Build 0)  -->
<!DOCTYPE svg PUBLIC "-//W3C//DTD SVG 1.1//EN" "http://www.w3.org/Graphics/SVG/1.1/DTD/svg11.dtd">
<svg version="1.1" id="Layer_1" xmlns="http://www.w3.org/2000/svg" xmlns:xlink="http://www.w3.org/1999/xlink" x="0px" y="0px"
	 width="612px" height="792px" viewBox="0 0 612 792" enable-background="new 0 0 612 792" xml:space="preserve">
<symbol  id="New_Symbol" viewBox="-6.095 -6.102 12.19 12.202">
	<g id="x_1_">
		<path fill="#DB7373" d="M5.888-4.904C6.026-5.045,6.095-5.209,6.095-5.4c0-0.188-0.069-0.354-0.207-0.493
			C5.75-6.033,5.579-6.102,5.375-6.102c-0.171,0-0.334,0.067-0.488,0.207L0.012-1.02l-4.898-4.875
			c-0.139-0.14-0.297-0.207-0.477-0.207c-0.114,0-0.212,0.018-0.293,0.055C-5.737-6.01-5.815-5.959-5.888-5.895
			C-6.026-5.756-6.095-5.59-6.095-5.4c0,0.191,0.069,0.355,0.207,0.496l4.874,4.873l-4.874,4.888
			C-5.952,4.92-6.002,4.998-6.04,5.087c-0.036,0.089-0.055,0.183-0.055,0.28c0,0.099,0.019,0.19,0.055,0.281
			c0.037,0.09,0.088,0.172,0.152,0.245c0.139,0.138,0.306,0.207,0.501,0.207c0.195,0,0.362-0.067,0.501-0.207L0.012,0.97
			l4.874,4.924c0.139,0.138,0.306,0.207,0.501,0.207c0.195,0,0.363-0.067,0.501-0.206C5.953,5.82,6.001,5.738,6.035,5.648
			C6.066,5.56,6.084,5.465,6.084,5.367c0-0.099-0.018-0.19-0.049-0.28C6.001,4.997,5.953,4.92,5.888,4.855L1.001-0.031L5.888-4.904z
			"/>
	</g>
</symbol>
<symbol  id="New_Symbol_1" viewBox="-5.373 -8.25 10.746 16.5">
	<polygon fill="#3E5562" points="-5.373,-8.25 -5.373,8.25 5.373,0 	"/>
</symbol>
<g id="xbtn">
	
		<use xlink:href="#New_Symbol"  width="12.19" height="12.202" x="-6.095" y="-6.102" transform="matrix(1 0 0 -1 27.5947 29.7559)" overflow="visible"/>
</g>
<g id="small-add-btn">
	<polygon fill="none" stroke="#243845" stroke-width="3" stroke-miterlimit="10" points="54.5,36.632 68.082,44.472 81.662,36.632 
		81.662,20.95 68.082,13.11 54.5,20.952 	"/>
	<line fill="none" stroke="#DB7373" stroke-width="2" stroke-miterlimit="10" x1="67.5" y1="22.472" x2="67.5" y2="34.472"/>
	<line fill="none" stroke="#DB7373" stroke-width="2" stroke-miterlimit="10" x1="73.5" y1="28.472" x2="61.5" y2="28.472"/>
</g>
<g id="add-btn">
	<line fill="none" stroke="#DB7373" stroke-width="4" stroke-miterlimit="10" x1="180.053" y1="97.884" x2="180.053" y2="125.884"/>
	<line fill="none" stroke="#DB7373" stroke-width="4" stroke-miterlimit="10" x1="166.053" y1="111.884" x2="193.84" y2="111.884"/>
	<polygon fill="none" stroke="#26333B" stroke-width="7" stroke-miterlimit="10" points="210.977,129.283 179.424,147.5 
		147.873,129.283 147.873,92.846 179.424,74.631 210.977,92.849 	"/>
</g>
<g id="engine-icon">
	<polygon fill="#2A4351" points="71.813,99.137 92.876,111.313 113.688,98.843 113.68,97.992 93.053,85.912 71.816,98.146 	"/>
	<polygon fill="#243845" points="113.688,122.443 93.012,134.846 92.239,134.383 92.239,110.827 113.688,97.979 	"/>
	<polygon id="_x3E_outline" fill="none" stroke="#243845" stroke-width="7" stroke-miterlimit="10" points="124.605,128.68 
		93.053,146.896 61.5,128.68 61.5,92.241 93.053,74.026 124.605,92.244 	"/>
	<polygon fill="#223542" points="71.816,122.611 92.99,134.814 92.99,110.35 71.816,98.146 	"/>
</g>
<g id="logo-horizontal">
	<g>
		<path fill="#446378" d="M152.181,21.521l8.918,12.938h0.043V21.521h1.458v15.307h-1.629l-8.918-12.949h-0.043v12.949h-1.458
			V21.521H152.181z"/>
		<path fill="#446378" d="M175.645,21.521l6.004,15.307h-1.561l-1.865-4.76h-6.964l-1.854,4.76h-1.543l6.155-15.307H175.645z
			 M177.725,30.825l-2.959-7.847l-3.064,7.847H177.725z"/>
		<path fill="#446378" d="M188.508,21.521l8.918,12.938h0.043V21.521h1.459v15.307h-1.631l-8.918-12.949h-0.043v12.949h-1.457
			V21.521H188.508z"/>
		<path fill="#446378" d="M205.486,26.151c0.301-0.957,0.75-1.812,1.354-2.54c0.6-0.736,1.354-1.321,2.262-1.758
			c0.906-0.438,1.961-0.654,3.162-0.654c1.198,0,2.25,0.219,3.146,0.654c0.9,0.437,1.65,1.021,2.252,1.758
			c0.604,0.729,1.054,1.583,1.354,2.54c0.301,0.958,0.451,1.966,0.451,3.021c0,1.062-0.15,2.065-0.451,3.022
			c-0.299,0.958-0.75,1.801-1.354,2.521c-0.602,0.729-1.352,1.312-2.252,1.747c-0.896,0.438-1.946,0.653-3.146,0.653
			c-1.201,0-2.256-0.219-3.162-0.653c-0.908-0.436-1.662-1.019-2.262-1.747c-0.604-0.729-1.055-1.562-1.354-2.521
			c-0.301-0.957-0.449-1.975-0.449-3.022S205.188,27.109,205.486,26.151z M206.826,31.629c0.227,0.812,0.564,1.53,1.029,2.166
			c0.465,0.636,1.062,1.146,1.791,1.532c0.729,0.386,1.6,0.579,2.615,0.579c1.014,0,1.883-0.193,2.604-0.579
			c0.725-0.386,1.314-0.896,1.779-1.532c0.463-0.636,0.809-1.354,1.027-2.166c0.223-0.807,0.334-1.625,0.334-2.454
			c0-0.844-0.111-1.665-0.334-2.466c-0.221-0.8-0.564-1.519-1.027-2.154c-0.465-0.636-1.059-1.146-1.779-1.523
			c-0.723-0.396-1.592-0.578-2.604-0.578c-1.016,0-1.887,0.188-2.615,0.578c-0.729,0.387-1.326,0.896-1.791,1.523
			c-0.465,0.646-0.809,1.354-1.029,2.154c-0.221,0.801-0.332,1.622-0.332,2.466C206.494,30.004,206.605,30.822,206.826,31.629z"/>
		<path fill="#446378" d="M232.07,21.521c0.643,0,1.262,0.061,1.854,0.182c0.594,0.122,1.109,0.329,1.562,0.622
			c0.449,0.293,0.812,0.679,1.082,1.157c0.271,0.479,0.408,1.066,0.408,1.789c0,0.396-0.064,0.781-0.193,1.17
			c-0.129,0.379-0.311,0.722-0.547,1.021c-0.232,0.312-0.514,0.567-0.836,0.782c-0.322,0.214-0.684,0.364-1.082,0.45v0.043
			c0.984,0.128,1.771,0.527,2.357,1.211c0.586,0.679,0.879,1.519,0.879,2.52c0,0.243-0.021,0.521-0.064,0.825
			c-0.043,0.312-0.129,0.621-0.258,0.943c-0.127,0.313-0.312,0.64-0.557,0.954c-0.244,0.312-0.568,0.589-0.98,0.818
			c-0.406,0.232-0.906,0.436-1.5,0.575c-0.594,0.15-1.305,0.229-2.133,0.229h-6.478V21.52h6.479v0.01L232.07,21.521L232.07,21.521z
			 M232.07,28.231c0.586,0,1.094-0.067,1.521-0.204c0.43-0.146,0.785-0.321,1.061-0.562c0.287-0.229,0.5-0.512,0.646-0.82
			c0.143-0.312,0.215-0.646,0.215-1.013c0-1.915-1.15-2.873-3.451-2.873h-5.018v5.477L232.07,28.231L232.07,28.231z M232.07,35.585
			c0.543,0,1.059-0.047,1.543-0.14c0.486-0.103,0.914-0.271,1.287-0.504c0.371-0.243,0.664-0.568,0.879-0.979
			c0.213-0.407,0.32-0.918,0.32-1.532c0-0.979-0.346-1.727-1.039-2.219c-0.693-0.493-1.689-0.74-2.99-0.74h-5.018v6.11
			L232.07,35.585L232.07,35.585z"/>
		<path fill="#446378" d="M243.391,26.151c0.299-0.957,0.75-1.812,1.35-2.54c0.605-0.736,1.355-1.321,2.271-1.758
			c0.896-0.438,1.961-0.654,3.16-0.654c1.189,0,2.252,0.219,3.145,0.654c0.9,0.437,1.65,1.021,2.25,1.758
			c0.605,0.729,1.051,1.583,1.355,2.54c0.301,0.958,0.441,1.966,0.441,3.021c0,1.062-0.145,2.065-0.441,3.022
			c-0.309,0.958-0.75,1.801-1.355,2.521c-0.6,0.729-1.35,1.312-2.25,1.747c-0.895,0.438-1.951,0.653-3.145,0.653
			c-1.199,0-2.266-0.219-3.16-0.653c-0.908-0.436-1.662-1.019-2.271-1.747c-0.6-0.729-1.051-1.562-1.35-2.521
			c-0.301-0.957-0.451-1.975-0.451-3.022S243.09,27.109,243.391,26.151z M244.729,31.629c0.223,0.812,0.564,1.53,1.029,2.166
			c0.465,0.636,1.061,1.146,1.791,1.532c0.729,0.386,1.6,0.579,2.613,0.579c1.016,0,1.885-0.193,2.604-0.579
			c0.719-0.386,1.312-0.896,1.779-1.532c0.465-0.636,0.807-1.354,1.02-2.166c0.23-0.807,0.334-1.625,0.334-2.454
			c0-0.844-0.104-1.665-0.334-2.466c-0.221-0.8-0.561-1.519-1.02-2.154c-0.465-0.635-1.062-1.146-1.779-1.523
			c-0.723-0.396-1.59-0.578-2.604-0.578c-1.019,0-1.891,0.188-2.613,0.578c-0.73,0.387-1.326,0.896-1.791,1.523
			c-0.465,0.646-0.812,1.354-1.029,2.154c-0.221,0.801-0.332,1.622-0.332,2.466C244.396,30.004,244.508,30.822,244.729,31.629z"/>
		<path fill="#446378" d="M263.734,21.521l4.33,6.4l4.48-6.4h1.629l-5.23,7.46l5.531,7.847h-1.758l-4.652-6.753l-4.717,6.753h-1.629
			l5.479-7.891l-5.188-7.416H263.734z"/>
	</g>
	<polygon fill="#3B5669" points="118.323,42.58 131.147,35.971 131.147,37.896 118.323,44.508 	"/>
	<polygon fill="#2A3D4A" points="118.323,42.58 105.5,35.971 105.5,37.896 118.323,44.508 	"/>
	<polygon fill="#3B5669" points="118.323,37.979 131.147,31.368 131.147,33.295 118.323,39.906 	"/>
	<polygon fill="#2A3D4A" points="118.323,37.979 105.5,31.368 105.5,33.295 118.323,39.906 	"/>
	<polygon fill="#3B5669" points="118.323,33.376 131.147,26.767 131.147,28.693 118.323,35.305 	"/>
	<polygon fill="#2A3D4A" points="118.323,33.376 105.5,26.767 105.5,28.693 118.323,35.305 	"/>
	<polygon fill="#567D99" points="131.147,22.164 118.323,28.773 105.5,22.164 118.323,15.554 	"/>
	<polygon fill="#3B5669" points="118.323,28.773 131.147,22.164 131.147,24.092 118.323,30.703 	"/>
	<polygon fill="#2A3D4A" points="118.323,28.773 105.5,22.164 105.5,24.092 118.323,30.703 	"/>
</g>
<g id="circle-add-btn">
	
		<line fill="none" stroke="#DB7373" stroke-width="4" stroke-miterlimit="10" x1="264.816" y1="101.672" x2="264.816" y2="121.975"/>
	
		<line fill="none" stroke="#DB7373" stroke-width="4" stroke-miterlimit="10" x1="254.665" y1="111.824" x2="274.967" y2="111.824"/>
	<circle fill="none" stroke="#26333B" stroke-width="7" stroke-miterlimit="10" cx="264.113" cy="111.824" r="22.939"/>
</g>
<g id="star">
	<polygon fill="#DBDBDB" points="293.729,21.902 294.963,25.701 298.957,25.701 295.726,28.049 296.96,31.848 293.729,29.5 
		290.497,31.848 291.73,28.049 288.5,25.701 292.494,25.701 	"/>
</g>
<g id="search">
	<path fill="#DB7373" d="M321.354,29.66c-2.987,0-5.423-2.435-5.423-5.426c0-2.989,2.436-5.421,5.423-5.421
		c2.99,0,5.426,2.432,5.426,5.421C326.779,27.226,324.345,29.66,321.354,29.66L321.354,29.66z M321.354,21.467
		c-1.524,0-2.77,1.243-2.77,2.768c0,1.53,1.244,2.771,2.77,2.771c1.529,0,2.771-1.242,2.771-2.771
		C324.126,22.709,322.884,21.467,321.354,21.467L321.354,21.467z"/>
	<polygon fill="#DB7373" points="312.877,34.5 311,32.619 317.485,26.136 319.362,28.014 	"/>
</g>
<g id="check">
	<path fill="#DBDBDB" d="M345.691,34.061c-0.262,0-0.498-0.051-0.715-0.153c-0.216-0.102-0.419-0.238-0.611-0.408l-3.604-3.621
		c-0.182-0.181-0.316-0.388-0.407-0.621c-0.092-0.232-0.137-0.467-0.137-0.706c0-0.238,0.045-0.47,0.137-0.697
		c0.091-0.227,0.227-0.425,0.407-0.595c0.183-0.181,0.39-0.32,0.621-0.417c0.231-0.096,0.467-0.145,0.705-0.145
		s0.47,0.048,0.697,0.145c0.227,0.097,0.43,0.235,0.61,0.417l2.296,2.295l5.797-5.814c0.182-0.181,0.386-0.317,0.611-0.408
		c0.227-0.091,0.462-0.136,0.706-0.136c0.243,0,0.479,0.045,0.705,0.136c0.227,0.091,0.432,0.227,0.611,0.408
		c0.182,0.182,0.313,0.386,0.399,0.612c0.085,0.227,0.128,0.462,0.128,0.706c0,0.244-0.043,0.479-0.128,0.705
		c-0.086,0.227-0.219,0.431-0.399,0.612L347,33.5c-0.17,0.17-0.365,0.306-0.586,0.408C346.193,34.01,345.952,34.061,345.691,34.061z
		"/>
</g>
<g id="left-arrow">
	
		<use xlink:href="#New_Symbol_1"  width="10.746" height="16.5" x="-5.373" y="-8.25" transform="matrix(-1 0 0 -1 374.627 27.25)" overflow="visible"/>
</g>
<g id="up-arrow">
	
		<use xlink:href="#New_Symbol_1"  width="10.746" height="16.5" x="-5.373" y="-8.25" transform="matrix(4.489620e-11 -1 1 4.489620e-11 425.373 27.25)" overflow="visible"/>
</g>
<g id="down-arrow">
	
		<use xlink:href="#New_Symbol_1"  width="10.746" height="16.5" x="-5.373" y="-8.25" transform="matrix(-1.346886e-10 1 -1 -1.346886e-10 446.25 27.25)" overflow="visible"/>
</g>
<g id="right-arrow">
	
		<use xlink:href="#New_Symbol_1"  width="10.746" height="16.5" x="-5.373" y="-8.25" transform="matrix(1 0 0 -1 400.373 27.25)" overflow="visible"/>
</g>
<g id="mail">
	<circle fill="none" stroke="#212C33" stroke-miterlimit="10" cx="192.499" cy="358.426" r="72.976"/>
	<circle fill="none" stroke="#212C33" stroke-miterlimit="10" cx="192.499" cy="358.426" r="94.669"/>
	<path fill="none" stroke="#212C33" stroke-miterlimit="10" d="M310.779,358.426c0,65.325-52.957,118.281-118.283,118.281
		c-65.321,0-118.278-52.956-118.278-118.281c0-65.326,52.957-118.281,118.278-118.281
		C257.822,240.145,310.779,293.1,310.779,358.426z"/>
	<path fill="none" stroke="#212C33" stroke-miterlimit="10" d="M360.292,299.048c13.425,21.761-50.818,65.986-143.489,98.78
		c-92.666,32.791-178.674,41.735-192.101,19.977c-13.425-21.763,50.819-65.989,143.486-98.78
		C260.859,286.23,346.867,277.287,360.292,299.048z"/>
	<path fill="none" stroke="#212C33" stroke-miterlimit="10" d="M360.292,417.803c13.425-21.76-50.818-65.985-143.489-98.779
		c-92.666-32.792-178.674-41.736-192.101-19.977c-13.425,21.762,50.819,65.988,143.486,98.78
		C260.859,430.621,346.867,439.564,360.292,417.803z"/>
	<path fill="none" stroke="#212C33" stroke-miterlimit="10" d="M188.031,536.361c24.85,6.021,46.992-68.762,49.459-167.034
		c2.467-98.266-15.678-182.812-40.526-188.836c-24.852-6.022-46.995,68.764-49.462,167.03
		C145.035,445.793,163.181,530.34,188.031,536.361z"/>
	<circle fill="none" stroke="#212C33" stroke-miterlimit="10" cx="192.499" cy="358.426" r="141.107"/>
	<g>
		<rect x="160.499" y="341.5" fill="none" stroke="#FFAB7A" stroke-width="2" stroke-miterlimit="10" width="64" height="34.905"/>
		<polyline fill="none" stroke="#FFAB7A" stroke-width="2" stroke-miterlimit="10" points="224.499,341.5 192.499,368.109 
			160.499,341.5 		"/>
		
			<line fill="none" stroke="#FFAB7A" stroke-width="2" stroke-miterlimit="10" x1="203.377" y1="358.898" x2="224.499" y2="376.405"/>
		
			<line fill="none" stroke="#FFAB7A" stroke-width="2" stroke-miterlimit="10" x1="160.499" y1="376.405" x2="181.622" y2="358.897"/>
	</g>
	<circle fill="#192126" stroke="#DB7373" stroke-miterlimit="10" cx="261.871" cy="381.124" r="4.031"/>
	<circle fill="#192126" stroke="#DB7373" stroke-miterlimit="10" cx="162.546" cy="496.346" r="3.761"/>
	<circle fill="#192126" stroke="#DB7373" stroke-miterlimit="10" cx="235.907" cy="442.576" r="2.677"/>
	<circle fill="#192126" stroke="#DB7373" stroke-miterlimit="10" cx="233.23" cy="271.979" r="2.677"/>
	<circle fill="#192126" stroke="#DB7373" stroke-miterlimit="10" cx="59.197" cy="404.795" r="2.677"/>
	<circle fill="#192126" stroke="#DB7373" stroke-miterlimit="10" cx="119.936" cy="350.655" r="2.677"/>
	<circle fill="#192126" stroke="#DB7373" stroke-miterlimit="10" cx="314.306" cy="287.156" r="2.677"/>
	<circle fill="#192126" stroke="#DB7373" stroke-miterlimit="10" cx="327.667" cy="399.021" r="5.774"/>
	<circle fill="#192126" stroke="#DB7373" stroke-miterlimit="10" cx="70.216" cy="287.967" r="4.031"/>
	<circle fill="#192126" stroke="#DB7373" stroke-miterlimit="10" cx="290.318" cy="423.738" r="4.031"/>
	<circle fill="#192126" stroke="#DB7373" stroke-miterlimit="10" cx="139.627" cy="279.885" r="4.031"/>
	<circle fill="#192126" stroke="#DB7373" stroke-miterlimit="10" cx="177.259" cy="241.794" r="4.031"/>
	<circle fill="#192126" stroke="#DB7373" stroke-miterlimit="10" cx="123.967" cy="423.738" r="4.031"/>
</g>
</svg>
