<?xml version="1.0" encoding="utf-8"?>
<!-- Generator: Adobe Illustrator 15.0.0, SVG Export Plug-In . SVG Version: 6.00 Build 0)  -->
<!DOCTYPE svg PUBLIC "-//W3C//DTD SVG 1.1//EN" "http://www.w3.org/Graphics/SVG/1.1/DTD/svg11.dtd">
<svg version="1.1" id="Layer_1" xmlns="http://www.w3.org/2000/svg" xmlns:xlink="http://www.w3.org/1999/xlink" x="0px" y="0px"
	 width="612px" height="792px" viewBox="0 0 612 792" style="enable-background:new 0 0 612 792;" xml:space="preserve">
<style type="text/css">
<![CDATA[
	.st0{fill:none;stroke:#DB7373;stroke-width:2;stroke-miterlimit:10;}
	.st1{fill:none;stroke:#FFAB7A;stroke-width:2;stroke-miterlimit:10;}
	.st2{fill:#567D99;}
	.st3{fill:#223542;}
	.st4{fill:#243845;}
	.st5{fill:none;stroke:#243845;stroke-width:3;stroke-miterlimit:10;}
	.st6{fill:#2A3D4A;}
	.st7{fill:#2A4351;}
	.st8{fill:none;stroke:#243845;stroke-width:7;stroke-miterlimit:10;}
	.st9{fill:#2F414D;}
	.st10{fill:none;stroke:#2B414F;stroke-miterlimit:10;}
	.st11{fill:none;stroke:#DB7373;stroke-width:4;stroke-miterlimit:10;}
	.st12{fill:#3B5669;}
	.st13{fill:#3E5562;}
	.st14{fill:none;stroke:#26333B;stroke-width:7;stroke-miterlimit:10;}
	.st15{fill:#212C33;stroke:#DB7373;stroke-miterlimit:10;}
	.st16{fill:#DB7373;}
	.st17{fill:#DBDBDB;}
	.st18{fill:#446378;}
]]>
</style>
<symbol  id="New_Symbol" viewBox="-6.095 -6.102 12.19 12.202">
	<g id="x_1_">
		<path class="st16" d="M5.888-4.904C6.026-5.045,6.095-5.209,6.095-5.4c0-0.188-0.069-0.354-0.207-0.491
			c-0.138-0.142-0.309-0.21-0.513-0.21c-0.171,0-0.334,0.065-0.488,0.207L0.012-1.02l-4.898-4.875
			c-0.139-0.142-0.297-0.207-0.477-0.207c-0.114,0-0.212,0.018-0.293,0.055C-5.737-6.01-5.815-5.959-5.888-5.895
			C-6.026-5.756-6.095-5.59-6.095-5.4c0,0.191,0.069,0.355,0.207,0.496l4.874,4.873l-4.874,4.89C-5.952,4.92-6.002,4.998-6.04,5.087
			c-0.036,0.089-0.055,0.183-0.055,0.28c0,0.099,0.019,0.188,0.055,0.281c0.037,0.09,0.088,0.172,0.152,0.243
			C-5.749,6.031-5.582,6.1-5.387,6.1c0.195,0,0.362-0.065,0.501-0.207L0.012,0.97l4.874,4.924c0.139,0.14,0.306,0.207,0.501,0.207
			c0.195,0,0.363-0.065,0.501-0.206C5.953,5.82,6.001,5.738,6.035,5.648C6.066,5.56,6.084,5.465,6.084,5.367
			c0-0.101-0.018-0.19-0.049-0.28C6.001,4.997,5.953,4.92,5.888,4.855L1.001-0.031L5.888-4.904z"/>
	</g>
</symbol>
<symbol  id="New_Symbol_1" viewBox="-5.373 -8.25 10.746 16.5">
	<polygon class="st13" points="-5.373,-8.25 -5.373,8.25 5.373,0 	"/>
</symbol>
<g id="xbtn">
	
		<use xlink:href="#New_Symbol"  width="12.19" height="12.202" x="-6.095" y="-6.102" transform="matrix(1 0 0 -1 27.5947 29.7588)" style="overflow:visible;"/>
</g>
<g id="small-add-btn_x3E_plus-btn">
	<polygon class="st5" points="53.918,35.022 67.5,42.862 81.08,35.022 81.08,19.34 67.5,11.5 53.918,19.342 	"/>
	<g id="_x3E_plus_2_">
		<line class="st0" x1="67.5" y1="21.5" x2="67.5" y2="33.5"/>
		<line class="st0" x1="73.5" y1="27.5" x2="61.5" y2="27.5"/>
	</g>
</g>
<g id="add-btn_x3E_plus-btn">
	<g id="_x3E_plus_1_">
		<line class="st11" x1="179.5" y1="98.5" x2="179.5" y2="126.5"/>
		<line class="st11" x1="165.713" y1="112.5" x2="193.5" y2="112.5"/>
	</g>
	<polygon class="st14" points="210.977,129.283 179.424,147.5 147.873,129.283 147.873,92.846 179.424,74.631 210.977,92.849 	"/>
</g>
<g id="engine-icon">
	<polygon class="st7" points="71.813,99.137 92.876,111.313 113.688,98.843 113.68,97.992 93.053,85.912 71.816,98.146 	"/>
	<polygon class="st4" points="113.688,122.443 93.012,134.846 92.239,134.383 92.239,110.827 113.688,97.979 	"/>
	<polygon id="_x3E_outline" class="st8" points="124.605,128.68 93.053,146.896 61.5,128.68 61.5,92.241 93.053,74.026 
		124.605,92.244 	"/>
	<polygon class="st3" points="71.816,122.611 92.99,134.814 92.99,110.35 71.816,98.146 	"/>
</g>
<g id="circle-add-btn_x3E_plus-btn">
	<g id="_x3E_plus">
		<line class="st11" x1="264.5" y1="100.5" x2="264.5" y2="122.5"/>
		<line class="st11" x1="253.5" y1="111.499" x2="275.5" y2="111.499"/>
	</g>
	<circle class="st14" cx="264.113" cy="111.571" r="22.939"/>
</g>
<g id="star">
	<polygon class="st17" points="293.729,21.902 294.963,25.701 298.957,25.701 295.726,28.049 296.96,31.848 293.729,29.5 
		290.497,31.848 291.73,28.049 288.5,25.701 292.494,25.701 	"/>
</g>
<g id="search">
	<path class="st16" d="M321.354,29.66c-2.985,0-5.423-2.435-5.423-5.426c0-2.989,2.438-5.421,5.423-5.421
		c2.99,0,5.428,2.432,5.428,5.421C326.779,27.226,324.345,29.66,321.354,29.66L321.354,29.66z M321.354,21.467
		c-1.522,0-2.77,1.243-2.77,2.768c0,1.53,1.244,2.771,2.77,2.771c1.529,0,2.771-1.242,2.771-2.771
		C324.126,22.709,322.884,21.467,321.354,21.467L321.354,21.467z"/>
	<polygon class="st16" points="312.877,34.5 311,32.619 317.485,26.136 319.362,28.014 	"/>
</g>
<g id="check">
	<path class="st17" d="M345.691,34.061c-0.264,0-0.498-0.051-0.717-0.153c-0.216-0.102-0.419-0.238-0.609-0.408l-3.604-3.621
		c-0.182-0.181-0.314-0.388-0.407-0.621c-0.092-0.232-0.137-0.467-0.137-0.706c0-0.238,0.045-0.47,0.137-0.697
		c0.093-0.227,0.229-0.425,0.407-0.595c0.185-0.181,0.392-0.32,0.621-0.417c0.231-0.096,0.467-0.145,0.705-0.145
		s0.47,0.048,0.697,0.145c0.227,0.097,0.43,0.235,0.608,0.417l2.298,2.295l5.797-5.814c0.182-0.181,0.386-0.317,0.609-0.408
		c0.229-0.091,0.462-0.136,0.706-0.136c0.243,0,0.479,0.045,0.705,0.136c0.229,0.091,0.434,0.227,0.611,0.408
		c0.182,0.182,0.312,0.386,0.397,0.612c0.085,0.227,0.128,0.462,0.128,0.706c0,0.244-0.043,0.479-0.128,0.705
		c-0.086,0.227-0.219,0.431-0.397,0.612L347,33.5c-0.17,0.17-0.365,0.306-0.586,0.408C346.193,34.01,345.952,34.061,345.691,34.061z
		"/>
</g>
<g id="left-arrow">
	
		<use xlink:href="#New_Symbol_1"  width="10.746" height="16.5" x="-5.373" y="-8.25" transform="matrix(-1 0 0 -1 374.627 27.25)" style="overflow:visible;"/>
</g>
<g id="up-arrow">
	
		<use xlink:href="#New_Symbol_1"  width="10.746" height="16.5" x="-5.373" y="-8.25" transform="matrix(4.489542e-11 -1 1 4.489542e-11 425.373 27.25)" style="overflow:visible;"/>
</g>
<g id="down-arrow">
	
		<use xlink:href="#New_Symbol_1"  width="10.746" height="16.5" x="-5.373" y="-8.25" transform="matrix(-1.346862e-10 1 -1 -1.346862e-10 446.25 27.25)" style="overflow:visible;"/>
</g>
<g id="right-arrow">
	
		<use xlink:href="#New_Symbol_1"  width="10.746" height="16.5" x="-5.373" y="-8.25" transform="matrix(1 0 0 -1 400.373 27.25)" style="overflow:visible;"/>
</g>
<g id="mail">
	<circle class="st10" cx="192.499" cy="358.426" r="72.976"/>
	<circle class="st10" cx="192.499" cy="358.426" r="94.669"/>
	<path class="st10" d="M310.779,358.426c0,65.325-52.958,118.281-118.283,118.281c-65.321,0-118.278-52.956-118.278-118.281
		c0-65.326,52.957-118.281,118.278-118.281C257.822,240.145,310.779,293.1,310.779,358.426z"/>
	<path class="st10" d="M360.292,299.048c13.425,21.761-50.818,65.986-143.489,98.78c-92.666,32.791-178.674,41.734-192.101,19.977
		c-13.425-21.763,50.819-65.989,143.486-98.78C260.859,286.23,346.867,277.287,360.292,299.048z"/>
	<path class="st10" d="M360.292,417.803c13.425-21.76-50.818-65.985-143.489-98.779c-92.666-32.792-178.674-41.736-192.101-19.977
		c-13.425,21.762,50.819,65.988,143.486,98.78C260.859,430.621,346.867,439.564,360.292,417.803z"/>
	<path class="st10" d="M188.031,536.361c24.85,6.021,46.992-68.764,49.459-167.034c2.467-98.266-15.678-182.812-40.526-188.836
		c-24.852-6.022-46.995,68.764-49.462,167.03C145.035,445.793,163.181,530.34,188.031,536.361z"/>
	<circle class="st10" cx="192.499" cy="358.426" r="141.107"/>
	<g>
		<rect x="160.499" y="341.5" class="st1" width="64" height="34.905"/>
		<polyline class="st1" points="224.499,341.5 192.499,368.109 160.499,341.5 		"/>
		<line class="st1" x1="203.377" y1="358.898" x2="224.499" y2="376.405"/>
		<line class="st1" x1="160.499" y1="376.405" x2="181.622" y2="358.897"/>
	</g>
	<circle class="st15" cx="261.871" cy="381.124" r="4.031"/>
	<circle class="st15" cx="162.546" cy="496.346" r="3.761"/>
	<circle class="st15" cx="235.907" cy="442.576" r="2.677"/>
	<circle class="st15" cx="233.23" cy="271.979" r="2.677"/>
	<circle class="st15" cx="59.197" cy="404.795" r="2.677"/>
	<circle class="st15" cx="119.936" cy="350.655" r="2.677"/>
	<circle class="st15" cx="314.306" cy="287.156" r="2.677"/>
	<circle class="st15" cx="327.667" cy="399.021" r="5.774"/>
	<circle class="st15" cx="70.216" cy="287.967" r="4.031"/>
	<circle class="st15" cx="290.318" cy="423.738" r="4.031"/>
	<circle class="st15" cx="139.627" cy="279.885" r="4.031"/>
	<circle class="st15" cx="177.259" cy="241.794" r="4.031"/>
	<circle class="st15" cx="123.967" cy="423.738" r="4.031"/>
</g>
<g id="github">
	<path class="st9" d="M395.961,122.583c-1.82-0.346-4.156-0.692-7.015-1.04c-2.857-0.346-6.538-0.475-11.04-0.39
		c-0.305,0.52-0.454,0.997-0.454,1.43c0.733,0.044,1.785,0.097,3.148,0.163c1.364,0.066,2.89,0.195,4.577,0.39
		c1.688,0.193,3.465,0.454,5.325,0.779c1.861,0.325,3.68,0.769,5.457,1.331l0.193,0.195c-0.13,0.174-0.282,0.259-0.454,0.259
		c-1.731-0.52-3.54-0.941-5.423-1.266c-1.885-0.324-3.682-0.574-5.392-0.748c-1.71-0.172-3.246-0.292-4.609-0.357
		c-1.364-0.064-2.395-0.097-3.085-0.097c-1.128,2.467-2.815,4.286-5.065,5.455c-2.252,1.169-5.065,2.058-8.443,2.663
		c-0.433,0-0.833,0.033-1.2,0.099c-0.367,0.064-0.791,0.097-1.268,0.097c0.692,0.477,1.527,0.985,2.501,1.526
		c0.975,0.541,1.916,1.181,2.825,1.915c0.909,0.738,1.677,1.615,2.305,2.631c0.628,1.016,0.942,2.218,0.942,3.604v7.924
		c0,0.561,0.163,1.049,0.487,1.46c0.323,0.41,0.671,0.779,1.037,1.104c0.369,0.325,0.703,0.607,1.008,0.845
		c0.303,0.237,0.433,0.444,0.39,0.616c0,0.174-0.141,0.293-0.421,0.357c-0.282,0.065-0.618,0.099-1.007,0.099
		c-0.392,0-0.803-0.023-1.234-0.066c-0.434-0.044-0.823-0.087-1.169-0.129c-0.866-0.348-1.494-0.748-1.884-1.202
		c-0.389-0.454-0.671-0.898-0.845-1.332c-0.173-0.477-0.238-0.997-0.193-1.559l-0.195-7.663c-0.692-0.866-1.364-1.646-2.014-2.338
		c-0.563-0.604-1.136-1.157-1.721-1.656c-0.584-0.497-1.071-0.746-1.461-0.746V149.6c0,0.649,0.161,1.233,0.485,1.752
		c0.325,0.52,0.684,0.974,1.072,1.364c0.389,0.39,0.746,0.736,1.071,1.04c0.323,0.302,0.485,0.562,0.485,0.779
		c0,0.476-0.249,0.715-0.746,0.715c-0.498,0-1.071-0.108-1.722-0.325c-0.647-0.218-1.298-0.499-1.947-0.844
		c-0.648-0.348-1.126-0.649-1.43-0.91c-0.779-0.779-1.223-1.926-1.331-3.441c-0.107-1.517-0.097-2.987,0.032-4.415
		c0-0.694-0.011-1.526-0.032-2.5c-0.021-0.976-0.055-1.917-0.097-2.827c-0.045-1.081-0.087-2.164-0.13-3.246l-3.639,0.195
		c0.042,2.381,0.042,4.61,0,6.689c-0.043,1.774-0.107,3.484-0.193,5.13c-0.088,1.644-0.239,2.75-0.455,3.312
		c-0.348,0.736-0.866,1.341-1.559,1.818c-0.692,0.476-1.396,0.833-2.111,1.072c-0.713,0.236-1.331,0.346-1.85,0.325
		c-0.521-0.023-0.78-0.207-0.78-0.553c0-0.216,0.119-0.4,0.356-0.552c0.238-0.151,0.521-0.336,0.845-0.551
		c0.324-0.218,0.626-0.478,0.91-0.781c0.28-0.303,0.486-0.713,0.616-1.233c0.085-0.478,0.151-1.494,0.195-3.053
		c0.043-1.559,0.062-3.204,0.062-4.935c0-2.036-0.021-4.264-0.062-6.689c-0.867,0.259-1.625,0.562-2.274,0.909
		c-0.562,0.303-1.07,0.682-1.525,1.138c-0.454,0.454-0.682,0.983-0.682,1.59v9.416c0,0.606-0.185,1.159-0.552,1.657
		c-0.369,0.497-0.823,0.909-1.364,1.233c-0.541,0.325-1.115,0.574-1.722,0.748c-0.606,0.172-1.126,0.259-1.559,0.259
		c-0.348,0-0.736-0.023-1.169-0.065c-0.435-0.043-0.648-0.172-0.648-0.389c0-0.303,0.162-0.574,0.487-0.812
		c0.323-0.239,0.682-0.51,1.069-0.812c0.392-0.303,0.748-0.651,1.072-1.04c0.325-0.39,0.487-0.867,0.487-1.43v-7.208
		c-0.305,0.043-0.649,0.085-1.04,0.129c-0.349,0.043-0.746,0.076-1.201,0.097c-0.454,0.021-0.964,0.033-1.525,0.033
		c-1.43,0-2.521-0.207-3.279-0.617c-0.759-0.413-1.344-0.921-1.754-1.526c-0.412-0.606-0.715-1.223-0.909-1.851
		c-0.194-0.626-0.399-1.179-0.616-1.656c-0.563-1.386-1.181-2.446-1.852-3.183c-0.673-0.736-1.396-1.32-2.176-1.752
		c-0.478-0.346-0.758-0.682-0.845-1.007c-0.087-0.325,0.107-0.529,0.586-0.618c1.298-0.215,2.38-0.031,3.246,0.553
		c0.865,0.585,1.635,1.289,2.305,2.11c0.671,0.823,1.32,1.646,1.949,2.469c0.627,0.821,1.354,1.363,2.176,1.623
		c1.255,0.346,2.261,0.499,3.02,0.455c0.758-0.043,1.505-0.346,2.24-0.909c0.043-0.52,0.4-1.018,1.072-1.495
		c0.671-0.476,1.428-0.93,2.272-1.362c0.845-0.433,1.655-0.833,2.435-1.202c0.78-0.367,1.32-0.659,1.625-0.877h-0.261
		c-4.2-0.346-7.555-1.233-10.065-2.663c-2.512-1.428-4.396-3.312-5.65-5.65c-2.251,0.044-4.266,0.141-6.038,0.292
		c-1.775,0.152-3.378,0.336-4.809,0.552c-1.428,0.217-2.684,0.444-3.766,0.682c-1.082,0.238-2.077,0.466-2.987,0.682
		c-0.13,0.129-0.292,0.205-0.486,0.226c-0.194,0.023-0.336,0.033-0.424,0.033c-0.042,0.044-0.087,0.044-0.129,0
		c-0.087,0-0.13-0.085-0.13-0.259c-0.044,0-0.044-0.021,0-0.065c0-0.085,0.087-0.13,0.259-0.13c0.088,0,0.195-0.033,0.326-0.097
		c0.13-0.065,0.236-0.098,0.325-0.098c1.903-0.476,4.22-0.984,6.948-1.526c2.729-0.541,6.275-0.854,10.649-0.941
		c-0.13-0.26-0.249-0.508-0.356-0.748c-0.108-0.236-0.229-0.464-0.357-0.682c-0.822,0-2.033,0.033-3.637,0.099
		c-1.602,0.065-3.279,0.152-5.033,0.259c-1.753,0.11-3.44,0.251-5.063,0.423c-1.625,0.174-2.892,0.389-3.802,0.649
		c-0.172,0-0.259-0.042-0.259-0.129c-0.044-0.042-0.044-0.108,0-0.195c-0.087-0.087-0.107-0.15-0.064-0.195
		c0.043-0.042,0.064-0.108,0.064-0.195c0.91-0.216,2.164-0.41,3.767-0.583c1.603-0.172,3.28-0.315,5.033-0.423
		c1.755-0.107,3.433-0.195,5.033-0.259c1.603-0.065,2.857-0.098,3.767-0.098c-0.477-1.125-0.778-2.391-0.908-3.799
		c-0.13-1.407-0.195-2.846-0.195-4.319c0-1.341,0.097-2.5,0.292-3.474s0.456-1.851,0.78-2.63c0.325-0.78,0.714-1.503,1.169-2.176
		c0.454-0.67,0.963-1.374,1.525-2.111c-0.39-1.558-0.574-2.987-0.552-4.286c0.021-1.298,0.14-2.423,0.357-3.377
		c0.215-1.125,0.518-2.099,0.908-2.922c0.735-0.042,1.623,0.065,2.662,0.325c0.865,0.216,1.96,0.617,3.28,1.202
		c1.319,0.583,2.867,1.505,4.644,2.759c0.951-0.389,2.229-0.692,3.832-0.908c1.6-0.216,3.289-0.346,5.063-0.39
		c1.775-0.043,3.528,0.011,5.262,0.162c1.73,0.152,3.183,0.38,4.352,0.682c0.692-0.433,1.536-0.91,2.532-1.428
		c0.996-0.52,1.98-0.985,2.956-1.396c0.974-0.412,1.894-0.725,2.759-0.941c0.866-0.216,1.56-0.238,2.079-0.065
		c0.172,0.259,0.354,0.616,0.551,1.072c0.195,0.454,0.357,1.07,0.487,1.85c0.131,0.78,0.193,1.733,0.193,2.857
		c0,1.126-0.106,2.446-0.323,3.963c0.172,0.346,0.496,0.79,0.974,1.331s0.975,1.266,1.494,2.174c0.52,0.91,0.984,2.046,1.396,3.41
		c0.412,1.364,0.616,3.02,0.616,4.968c-0.087,1.517-0.194,2.891-0.324,4.124c-0.13,1.234-0.304,2.35-0.52,3.345
		c4.459,0,8.096,0.141,10.911,0.423c2.812,0.282,5.173,0.595,7.078,0.941l0.131,0.13c0.085,0.088,0.13,0.173,0.13,0.26
		c-0.13,0-0.219,0.054-0.261,0.163C396.111,122.529,396.046,122.583,395.961,122.583z"/>
</g>
<g id="logo-horizontal">
	<g>
		<path class="st18" d="M155.704,20.11l8.918,12.938h0.043V20.11h1.458v15.307h-1.629l-8.918-12.949h-0.043v12.949h-1.458V20.11
			H155.704z"/>
		<path class="st18" d="M179.157,20.11l6.004,15.307h-1.561l-1.865-4.76h-6.964l-1.854,4.76h-1.543l6.155-15.307H179.157z
			 M181.237,29.414l-2.959-7.847l-3.064,7.847H181.237z"/>
		<path class="st18" d="M192.021,20.11l8.918,12.938h0.043V20.11h1.459v15.307h-1.631l-8.918-12.949h-0.043v12.949h-1.457V20.11
			H192.021z"/>
		<path class="st18" d="M208.999,24.74c0.301-0.957,0.75-1.812,1.354-2.54c0.6-0.736,1.354-1.321,2.262-1.758
			c0.906-0.438,1.961-0.654,3.162-0.654c1.198,0,2.25,0.219,3.146,0.654c0.9,0.437,1.65,1.021,2.252,1.758
			c0.604,0.729,1.057,1.583,1.354,2.54c0.301,0.958,0.451,1.966,0.451,3.021c0,1.062-0.15,2.065-0.451,3.022
			c-0.299,0.958-0.75,1.801-1.354,2.521c-0.602,0.729-1.352,1.312-2.252,1.747c-0.896,0.438-1.943,0.653-3.146,0.653
			s-2.256-0.219-3.162-0.653c-0.908-0.436-1.662-1.019-2.262-1.747c-0.604-0.729-1.058-1.562-1.354-2.521
			c-0.301-0.957-0.449-1.978-0.449-3.022S208.7,25.698,208.999,24.74z M210.339,30.217c0.229,0.812,0.564,1.53,1.029,2.166
			s1.062,1.146,1.791,1.532c0.729,0.386,1.6,0.579,2.615,0.579c1.014,0,1.883-0.193,2.604-0.579
			c0.728-0.386,1.314-0.896,1.779-1.532c0.463-0.636,0.809-1.354,1.027-2.166c0.223-0.807,0.334-1.625,0.334-2.454
			c0-0.844-0.111-1.665-0.334-2.466c-0.221-0.8-0.564-1.519-1.027-2.154c-0.465-0.636-1.059-1.146-1.779-1.521
			c-0.723-0.396-1.592-0.578-2.604-0.578c-1.016,0-1.887,0.188-2.615,0.578c-0.729,0.387-1.326,0.896-1.791,1.521
			c-0.465,0.646-0.809,1.354-1.029,2.154c-0.221,0.801-0.332,1.622-0.332,2.466C210.007,28.592,210.118,29.411,210.339,30.217z"/>
		<path class="st18" d="M235.583,20.11c0.643,0,1.262,0.061,1.854,0.182c0.594,0.122,1.106,0.329,1.562,0.622
			c0.449,0.293,0.812,0.679,1.082,1.157c0.271,0.479,0.408,1.063,0.408,1.789c0,0.396-0.064,0.778-0.193,1.17
			c-0.129,0.379-0.311,0.722-0.547,1.021c-0.232,0.312-0.514,0.567-0.836,0.782c-0.322,0.214-0.684,0.364-1.082,0.45v0.043
			c0.984,0.128,1.771,0.524,2.357,1.211c0.586,0.679,0.879,1.519,0.879,2.52c0,0.243-0.021,0.521-0.064,0.825
			c-0.043,0.312-0.129,0.621-0.258,0.943c-0.127,0.312-0.312,0.64-0.557,0.954c-0.244,0.312-0.568,0.589-0.98,0.815
			c-0.406,0.232-0.906,0.438-1.5,0.575c-0.594,0.15-1.305,0.229-2.133,0.229h-6.479v-15.29h6.479v0.013L235.583,20.11L235.583,20.11
			z M235.583,26.82c0.586,0,1.094-0.067,1.521-0.204c0.43-0.146,0.785-0.321,1.061-0.562c0.287-0.229,0.5-0.512,0.646-0.82
			c0.143-0.312,0.215-0.646,0.215-1.013c0-1.915-1.15-2.873-3.451-2.873h-5.018v5.479L235.583,26.82L235.583,26.82z M235.583,34.173
			c0.543,0,1.059-0.047,1.543-0.14c0.486-0.104,0.914-0.271,1.287-0.504c0.371-0.243,0.664-0.568,0.879-0.979
			c0.213-0.407,0.32-0.918,0.32-1.532c0-0.979-0.346-1.727-1.039-2.219c-0.693-0.493-1.689-0.74-2.99-0.74h-5.018v6.11
			L235.583,34.173L235.583,34.173z"/>
		<path class="st18" d="M246.903,24.74c0.299-0.957,0.75-1.812,1.35-2.54c0.605-0.736,1.355-1.321,2.271-1.758
			c0.896-0.438,1.961-0.654,3.16-0.654c1.188,0,2.252,0.219,3.145,0.654c0.9,0.437,1.65,1.021,2.25,1.758
			c0.605,0.729,1.051,1.583,1.355,2.54c0.301,0.958,0.438,1.966,0.438,3.021c0,1.062-0.145,2.065-0.438,3.022
			c-0.312,0.958-0.75,1.801-1.355,2.521c-0.6,0.729-1.35,1.312-2.25,1.747c-0.895,0.438-1.951,0.653-3.145,0.653
			c-1.199,0-2.269-0.219-3.16-0.653c-0.908-0.436-1.662-1.019-2.271-1.747c-0.6-0.729-1.051-1.562-1.35-2.521
			c-0.301-0.957-0.451-1.978-0.451-3.022S246.603,25.698,246.903,24.74z M248.241,30.217c0.223,0.812,0.564,1.53,1.029,2.166
			s1.061,1.146,1.791,1.532c0.729,0.386,1.6,0.579,2.613,0.579c1.016,0,1.885-0.193,2.604-0.579s1.312-0.896,1.779-1.532
			c0.465-0.636,0.807-1.354,1.02-2.166c0.23-0.807,0.334-1.625,0.334-2.454c0-0.844-0.104-1.665-0.334-2.466
			c-0.221-0.8-0.561-1.519-1.02-2.154c-0.465-0.635-1.062-1.146-1.779-1.521c-0.723-0.396-1.59-0.578-2.604-0.578
			c-1.021,0-1.894,0.188-2.613,0.578c-0.73,0.387-1.326,0.896-1.791,1.521c-0.465,0.646-0.812,1.354-1.029,2.154
			c-0.221,0.801-0.332,1.622-0.332,2.466C247.909,28.592,248.021,29.411,248.241,30.217z"/>
		<path class="st18" d="M267.247,20.11l4.33,6.397l4.48-6.397h1.629l-5.23,7.46l5.531,7.847h-1.758l-4.652-6.753l-4.717,6.753
			h-1.629l5.479-7.891l-5.188-7.416H267.247z"/>
	</g>
	<polygon class="st12" points="121.836,41.168 134.66,34.559 134.66,36.485 121.836,43.096 	"/>
	<polygon class="st6" points="121.836,41.168 109.013,34.559 109.013,36.485 121.836,43.096 	"/>
	<polygon class="st12" points="121.836,36.567 134.66,29.957 134.66,31.883 121.836,38.495 	"/>
	<polygon class="st6" points="121.836,36.567 109.013,29.957 109.013,31.883 121.836,38.495 	"/>
	<polygon class="st12" points="121.836,31.964 134.66,25.355 134.66,27.282 121.836,33.893 	"/>
	<polygon class="st6" points="121.836,31.964 109.013,25.355 109.013,27.282 121.836,33.893 	"/>
	<polygon class="st2" points="134.66,20.752 121.836,27.362 109.013,20.752 121.836,14.142 	"/>
	<polygon class="st12" points="121.836,27.362 134.66,20.752 134.66,22.68 121.836,29.292 	"/>
	<polygon class="st6" points="121.836,27.362 109.013,20.752 109.013,22.68 121.836,29.292 	"/>
</g>
</svg>
